<svg width="512" height="512" viewBox="0 0 512 512" fill="none" xmlns="http://www.w3.org/2000/svg"><path d="M256 498.8C390.04 498.8 498.7 390.14 498.7 256.1C498.7 122.061 390.04 13.4004 256 13.4004C121.961 13.4004 13.3 122.061 13.3 256.1C13.3 390.14 121.961 498.8 256 498.8Z" fill="white"/><path d="M256 20.9C385.6 20.9 491.2 126.3 491.2 256.1C491.2 385.9 385.6 491.1 256 491.1C126.4 491.1 20.8001 385.7 20.8001 255.9C20.8001 126.1 126.1 20.9 256 20.9ZM256 6C118.1 6 6.1001 117.9 6.1001 255.9C6.1001 393.9 117.8 506 256 506C394.2 506 505.9 394.1 505.9 256.1C505.9 118.1 393.9 6 256 6Z" fill="white"/><path d="M256 189.6C291 189.6 323 202 351 226.9C363.2 237.6 371.9 248.7 377.3 256C371.9 263.6 362.9 274.4 350.7 285.4C322.7 310 290.8 322.7 256 322.7C222.1 322.7 190.4 310.3 162.2 285.4C149.8 274.4 140.4 263.4 134.8 255.7C139.9 248.4 148.6 237.3 160.5 226.6C188.2 202 220.4 189.6 256 189.6ZM256 169.8C156.2 169.8 111 256 111 256C111 256 161 342.2 256 342.2C352.7 342.2 401 256 401 256C401 256 353.8 169.8 256 169.8Z" fill="#868686"/><path d="M256 233.4C268.2 233.4 278.3 243.3 278.3 255.7C278.3 267.9 268.4 278 256 278C243.6 278 233.7 268.1 233.7 255.7C233.7 243.6 243.6 233.4 256 233.4ZM256 205.1C228 205.1 205.4 227.7 205.4 255.7C205.4 283.7 228 306.3 256 306.3C284 306.3 306.6 283.7 306.6 255.7C306.6 227.7 283.7 205.1 256 205.1Z" fill="#868686"/><circle cx="400.5" cy="70.5" r="64.5" fill="#868686"/><path d="M400.8 49.7063H409.742V77.1724C409.742 80.2563 409.005 82.9548 407.532 85.2677C406.073 87.5806 404.028 89.3842 401.399 90.6783C398.769 91.9587 395.706 92.5989 392.209 92.5989C388.698 92.5989 385.628 91.9587 382.998 90.6783C380.369 89.3842 378.324 87.5806 376.865 85.2677C375.406 82.9548 374.676 80.2563 374.676 77.1724V49.7063H383.618V76.4083C383.618 78.0191 383.969 79.4509 384.671 80.7038C385.387 81.9566 386.392 82.941 387.686 83.6569C388.98 84.3728 390.488 84.7308 392.209 84.7308C393.944 84.7308 395.451 84.3728 396.731 83.6569C398.026 82.941 399.024 81.9566 399.726 80.7038C400.442 79.4509 400.8 78.0191 400.8 76.4083V49.7063ZM426.041 49.7063V92H417.099V49.7063H426.041Z" fill="white"/><circle cx="256" cy="255.9" r="242.55" fill="none" stroke="#868686" stroke-width="14.7"/></svg>