<?xml version="1.0" encoding="utf-8"?><svg version="1.1" id="NET" xmlns="http://www.w3.org/2000/svg" xmlns:xlink="http://www.w3.org/1999/xlink" x="0px" y="0px"
viewBox="0 0 512 512" style="enable-background:new 0 0 512 512;" xml:space="preserve"><style type="text/css">
	.st0{fill:#FFFFFF;}
	.st1{fill:#67a263;}
</style><g id="App"><g id="NET-BG"><circle class="st0" cx="256" cy="256.1" r="242.7"/><path class="st0" d="M256,20.9c129.6,0,235.2,105.4,235.2,235.2S385.6,491.1,256,491.1S20.8,385.7,20.8,255.9S126.1,20.9,256,20.9
			 M256,6C118.1,6,6.1,117.9,6.1,255.9S117.8,506,256,506s249.9-111.9,249.9-249.9S393.9,6,256,6L256,6z"/><circle cx="256" cy="255.9" r="242.55" fill="none" stroke="#67a263" stroke-width="14.7"/></g></g><g id="theme"><g><path class="st1" d="M194.7,371.2h-70.8c-7.6,0-13.6-6-13.6-13.6V154.4c0-7.6,6-13.6,13.6-13.6h70.8c3.3-12.3,10.3-23.3,19.6-31.6
			h-90.4c-25.3,0-45.6,20.3-45.6,45.2v203.2c0,24.9,20.3,45.2,45.6,45.2h90.4C205,394.5,198,383.5,194.7,371.2z M192,163.4h-43.2
			c-9,0-16,7-16,16c0,8.6,7,16,16,16H192V163.4z M132.8,238.2c0,8.6,7,16,16,16H192v-31.6h-43.2
			C140.1,222.3,132.8,229.2,132.8,238.2z M363.2,163.4h-82.1c-9,0-16,7-16,16c0,8.6,7,16,16,16h82.1c9,0,16-7,16-16
			C379.2,170.7,371.9,163.4,363.2,163.4z M388.2,109.2H255.8c-25.3,0-45.6,20.3-45.6,45.2v203.2c0,24.9,20.3,45.2,45.6,45.2h132.3
			c25.3,0,45.6-20.3,45.6-45.2V154.4C434.1,129.5,413.4,109.2,388.2,109.2z M402.1,357.6c0,7.6-6,13.6-13.6,13.6H256.2
			c-7.6,0-13.6-6-13.6-13.6V154.4c0-7.6,6-13.6,13.6-13.6h132.3c7.6,0,13.6,6,13.6,13.6V357.6z M363.2,222.3h-82.1c-9,0-16,7-16,16
			c0,8.6,7,16,16,16h82.1c9,0,16-7,16-16C379.2,229.2,371.9,222.3,363.2,222.3z"/></g></g></svg>