<svg class="svg-sprite" viewBox="0 0 32 32" xmlns="http://www.w3.org/2000/svg" xmlns:xlink="http://www.w3.org/1999/xlink"><style>:root>svg{display:none}:root>svg:target{display:block}</style>
<svg  id="hint_info" viewBox="0 0 20 20" fill="none" xmlns="http://www.w3.org/2000/svg">
<path d="M10 9C9.73479 9 9.48043 9.10536 9.2929 9.29289C9.10536 9.48043 9 9.73478 9 10V14C9 14.2652 9.10536 14.5196 9.2929 14.7071C9.48043 14.8946 9.73479 15 10 15C10.2652 15 10.5196 14.8946 10.7071 14.7071C10.8946 14.5196 11 14.2652 11 14V10C11 9.73478 10.8946 9.48043 10.7071 9.29289C10.5196 9.10536 10.2652 9 10 9ZM10.38 5.08C10.1365 4.97998 9.86347 4.97998 9.62 5.08C9.49725 5.12759 9.38511 5.19896 9.29 5.29C9.20167 5.3872 9.13065 5.49881 9.08 5.62C9.02402 5.73868 8.99662 5.86882 9 6C8.99924 6.13161 9.02447 6.26207 9.07423 6.38391C9.124 6.50574 9.19732 6.61656 9.29 6.71C9.38721 6.79833 9.49882 6.86936 9.62 6.92C9.7715 6.98224 9.93597 7.00632 10.099 6.99011C10.2619 6.97391 10.4184 6.91792 10.5547 6.82707C10.691 6.73622 10.8029 6.61328 10.8805 6.46907C10.9582 6.32486 10.9992 6.16378 11 6C10.9963 5.73523 10.8927 5.48163 10.71 5.29C10.6149 5.19896 10.5028 5.12759 10.38 5.08ZM10 0C8.02219 0 6.08879 0.58649 4.4443 1.6853C2.79981 2.78412 1.51809 4.3459 0.761209 6.17317C0.00433284 8.00043 -0.193701 10.0111 0.192152 11.9509C0.578004 13.8907 1.53041 15.6725 2.92894 17.0711C4.32746 18.4696 6.10929 19.422 8.0491 19.8079C9.98891 20.1937 11.9996 19.9957 13.8268 19.2388C15.6541 18.4819 17.2159 17.2002 18.3147 15.5557C19.4135 13.9112 20 11.9778 20 10C20 8.68678 19.7413 7.38642 19.2388 6.17317C18.7363 4.95991 17.9997 3.85752 17.0711 2.92893C16.1425 2.00035 15.0401 1.26375 13.8268 0.761205C12.6136 0.258658 11.3132 0 10 0V0ZM10 18C8.41775 18 6.87104 17.5308 5.55544 16.6518C4.23985 15.7727 3.21447 14.5233 2.60897 13.0615C2.00347 11.5997 1.84504 9.99113 2.15372 8.43928C2.4624 6.88743 3.22433 5.46197 4.34315 4.34315C5.46197 3.22433 6.88743 2.4624 8.43928 2.15372C9.99113 1.84504 11.5997 2.00346 13.0615 2.60896C14.5233 3.21447 15.7727 4.23984 16.6518 5.55544C17.5308 6.87103 18 8.41775 18 10C18 12.1217 17.1572 14.1566 15.6569 15.6569C14.1566 17.1571 12.1217 18 10 18V18Z" fill="#197AFF"/>
</svg>
<svg  id="hint_warning" viewBox="0 0 22 20" fill="none" xmlns="http://www.w3.org/2000/svg">
<path d="M21.5601 15.3L13.8901 2.58C13.58 2.09481 13.1527 1.69552 12.6476 1.41894C12.1425 1.14235 11.5759 0.997375 11.0001 0.997375C10.4243 0.997375 9.85769 1.14235 9.35262 1.41894C8.84755 1.69552 8.42024 2.09481 8.1101 2.58L0.4401 15.3C0.169154 15.7517 0.021889 16.2667 0.013112 16.7933C0.00433502 17.3199 0.134355 17.8396 0.3901 18.3C0.685779 18.8183 1.11376 19.2487 1.6303 19.5474C2.14684 19.8461 2.73343 20.0023 3.3301 20H18.6701C19.2629 20.0063 19.8468 19.8562 20.363 19.5647C20.8792 19.2733 21.3093 18.8508 21.6101 18.34C21.8734 17.8748 22.0075 17.3477 21.9987 16.8132C21.9899 16.2787 21.8385 15.7563 21.5601 15.3ZM19.8601 17.35C19.7399 17.5566 19.5655 17.7264 19.3557 17.8409C19.146 17.9555 18.9089 18.0105 18.6701 18H3.3301C3.09132 18.0105 2.85422 17.9555 2.64446 17.8409C2.4347 17.7264 2.26029 17.5566 2.1401 17.35C2.05233 17.198 2.00613 17.0255 2.00613 16.85C2.00613 16.6745 2.05233 16.502 2.1401 16.35L9.8201 3.62C9.9581 3.4377 10.1365 3.28986 10.3412 3.18807C10.5459 3.08628 10.7715 3.03331 11.0001 3.03331C11.2287 3.03331 11.4543 3.08628 11.659 3.18807C11.8637 3.28986 12.0421 3.4377 12.1801 3.62L19.8501 16.34C19.9413 16.4923 19.9902 16.6661 19.992 16.8436C19.9937 17.0211 19.9482 17.1959 19.8601 17.35Z" fill="#FAB431"/>
<path d="M11 16C11.5523 16 12 15.5523 12 15C12 14.4477 11.5523 14 11 14C10.4477 14 10 14.4477 10 15C10 15.5523 10.4477 16 11 16Z" fill="#FAB431"/>
<path d="M11 7C10.7348 7 10.4804 7.10536 10.2929 7.29289C10.1054 7.48043 10 7.73478 10 8V12C10 12.2652 10.1054 12.5196 10.2929 12.7071C10.4804 12.8946 10.7348 13 11 13C11.2652 13 11.5196 12.8946 11.7071 12.7071C11.8946 12.5196 12 12.2652 12 12V8C12 7.73478 11.8946 7.48043 11.7071 7.29289C11.5196 7.10536 11.2652 7 11 7Z" fill="#FAB431"/>
</svg>

<svg id="hint_danger" viewBox="0 0 24 24" fill="none" xmlns="http://www.w3.org/2000/svg">
<path d="M12 22.5C17.799 22.5 22.5 17.799 22.5 12C22.5 6.20101 17.799 1.5 12 1.5C6.20101 1.5 1.5 6.20101 1.5 12C1.5 17.799 6.20101 22.5 12 22.5Z" stroke="#FA3D31" stroke-width="2.625" stroke-linecap="round" stroke-linejoin="round"/>
<path d="M12 6.75V12.4375" stroke="#FA3D31" stroke-width="2.625" stroke-linecap="round" stroke-linejoin="round"/>
<path d="M12 18.5625C12.9665 18.5625 13.75 17.779 13.75 16.8125C13.75 15.846 12.9665 15.0625 12 15.0625C11.0335 15.0625 10.25 15.846 10.25 16.8125C10.25 17.779 11.0335 18.5625 12 18.5625Z" fill="#FA3D31"/>
</svg>


<svg id="hint_tip" viewBox="0 0 16 23" fill="none" xmlns="http://www.w3.org/2000/svg">
<path d="M13.0899 2.82001C12.1702 2.06359 11.0933 1.52204 9.9376 1.23485C8.78194 0.947666 7.57674 0.922096 6.40994 1.16001C4.85632 1.47383 3.43093 2.24208 2.31462 3.36729C1.19832 4.49249 0.441414 5.92394 0.139942 7.48001C-0.0802115 8.64673 -0.0402063 9.84766 0.257104 10.9971C0.554414 12.1466 1.1017 13.2163 1.85994 14.13C2.56363 14.9241 2.96698 15.9395 2.99994 17V20C2.99994 20.7957 3.31601 21.5587 3.87862 22.1213C4.44123 22.6839 5.20429 23 5.99994 23H9.99994C10.7956 23 11.5587 22.6839 12.1213 22.1213C12.6839 21.5587 12.9999 20.7957 12.9999 20V17.19C13.0335 16.0192 13.4637 14.8944 14.2199 14C15.5451 12.3608 16.1697 10.2648 15.9581 8.16763C15.7465 6.07044 14.7158 4.14149 13.0899 2.80001V2.82001ZM10.9999 20C10.9999 20.2652 10.8946 20.5196 10.707 20.7071C10.5195 20.8947 10.2652 21 9.99994 21H5.99994C5.73473 21 5.48037 20.8947 5.29284 20.7071C5.1053 20.5196 4.99994 20.2652 4.99994 20V19H10.9999V20ZM12.6699 12.76C11.6644 13.9526 11.0778 15.442 10.9999 17H8.99994V14C8.99994 13.7348 8.89458 13.4804 8.70705 13.2929C8.51951 13.1054 8.26516 13 7.99994 13C7.73473 13 7.48037 13.1054 7.29284 13.2929C7.1053 13.4804 6.99994 13.7348 6.99994 14V17H4.99994C4.97356 15.4681 4.40689 13.9948 3.39994 12.84C2.73558 12.044 2.28883 11.0894 2.10325 10.0694C1.91767 9.04928 1.99959 7.99852 2.34103 7.01954C2.68247 6.04055 3.27176 5.16675 4.05146 4.48333C4.83116 3.79992 5.77465 3.33021 6.78994 3.12001C7.66249 2.94035 8.5641 2.95725 9.42931 3.16948C10.2945 3.3817 11.1016 3.78393 11.792 4.34696C12.4824 4.90999 13.0387 5.61969 13.4206 6.42453C13.8025 7.22937 14.0004 8.10915 13.9999 9.00001C14.0073 10.3699 13.537 11.6995 12.6699 12.76Z" fill="#24D036"/>
</svg>


<svg id="search"  viewBox="0 0 18 17"  xmlns="http://www.w3.org/2000/svg">
<path d="M15.677 16.6069L9.96198 10.8909C7.41965 12.6984 3.91642 12.2562 1.90285 9.87383C-0.110711 7.49141 0.0371394 3.96349 2.24298 1.7579C4.44824 -0.448656 7.97651 -0.597146 10.3594 1.41631C12.7422 3.42977 13.1846 6.93334 11.377 9.4759L17.092 15.1919L15.678 16.6059L15.677 16.6069ZM6.48498 1.99988C4.58868 1.99946 2.95267 3.33057 2.56745 5.18733C2.18224 7.04409 3.15369 8.91617 4.89366 9.67014C6.63362 10.4241 8.66388 9.85273 9.75522 8.30195C10.8466 6.75117 10.699 4.64721 9.40198 3.2639L10.007 3.8639L9.32498 3.1839L9.31298 3.1719C8.56477 2.41907 7.54637 1.99702 6.48498 1.99988Z" />
</svg>

<svg  id="search_control" viewBox="0 0 18 18"  xmlns="http://www.w3.org/2000/svg">
<path d="M2.45148 11.9888C3.61237 13.1513 5.1583 13.8492 6.79805 13.951C8.4378 14.0527 10.0582 13.5513 11.3539 12.5413L15.8122 16.9996C15.9703 17.1523 16.1821 17.2368 16.4019 17.2349C16.6217 17.233 16.832 17.1448 16.9874 16.9894C17.1428 16.834 17.231 16.6237 17.2329 16.4039C17.2348 16.1841 17.1503 15.9723 16.9976 15.8142L12.5393 11.3559C13.5942 10.0021 14.0929 8.29685 13.9338 6.58799C13.7746 4.87912 12.9696 3.29532 11.6829 2.15959C10.3962 1.02385 8.72468 0.421737 7.00928 0.476033C5.29388 0.530329 3.6638 1.23695 2.45148 2.45178C1.82507 3.07788 1.32815 3.82126 0.989117 4.63946C0.650086 5.45766 0.475586 6.33464 0.475586 7.22029C0.475586 8.10595 0.650086 8.98293 0.989117 9.80113C1.32815 10.6193 1.82507 11.3627 2.45148 11.9888ZM3.6369 3.63888C4.46567 2.81013 5.55614 2.29438 6.72254 2.17948C7.88893 2.06459 9.05908 2.35768 10.0336 3.0088C11.0082 3.65992 11.7268 4.6288 12.0671 5.75035C12.4073 6.87191 12.3482 8.07675 11.8998 9.15961C11.4513 10.2425 10.6413 11.1363 9.60771 11.6889C8.57411 12.2415 7.38089 12.4186 6.23135 12.1901C5.0818 11.9616 4.04706 11.3415 3.3034 10.4356C2.55975 9.52973 2.1532 8.39401 2.15303 7.22197C2.15073 6.55597 2.28071 5.89614 2.53544 5.28076C2.79016 4.66539 3.16456 4.10673 3.6369 3.6372V3.63888Z" />
</svg>


<svg id="search_close" viewBox="0 0 15 15"  xmlns="http://www.w3.org/2000/svg">
<path d="M1.06541 12.7496L6.34112 7.47391L1.06541 2.19819C0.912701 2.04008 0.8282 1.82831 0.83011 1.6085C0.83202 1.38869 0.920188 1.17842 1.07562 1.02299C1.23106 0.867549 1.44133 0.779381 1.66114 0.777471C1.88095 0.775561 2.09272 0.860062 2.25083 1.01277L7.52654 6.28848L12.8023 1.01277C12.8796 0.932703 12.9721 0.868835 13.0744 0.824899C13.1767 0.780962 13.2867 0.757835 13.398 0.756868C13.5093 0.7559 13.6197 0.777112 13.7227 0.819264C13.8257 0.861417 13.9194 0.923667 13.9981 1.00238C14.0768 1.0811 14.139 1.1747 14.1812 1.27773C14.2233 1.38076 14.2445 1.49115 14.2436 1.60247C14.2426 1.71378 14.2195 1.82379 14.1755 1.92607C14.1316 2.02835 14.0677 2.12086 13.9877 2.19819L8.71196 7.47391L13.9877 12.7496C14.0677 12.827 14.1316 12.9195 14.1755 13.0217C14.2195 13.124 14.2426 13.234 14.2436 13.3453C14.2445 13.4567 14.2233 13.5671 14.1812 13.6701C14.139 13.7731 14.0768 13.8667 13.9981 13.9454C13.9194 14.0241 13.8257 14.0864 13.7227 14.1285C13.6197 14.1707 13.5093 14.1919 13.398 14.1909C13.2867 14.19 13.1767 14.1668 13.0744 14.1229C12.9721 14.079 12.8796 14.0151 12.8023 13.935L7.52654 8.65933L2.25083 13.935C2.09272 14.0878 1.88095 14.1723 1.66114 14.1703C1.44133 14.1684 1.23106 14.0803 1.07562 13.9248C0.920188 13.7694 0.83202 13.5591 0.83011 13.3393C0.8282 13.1195 0.912701 12.9077 1.06541 12.7496Z" />
</svg>

<svg id="theme_dark" viewBox="0 0 14 14"  xmlns="http://www.w3.org/2000/svg">
<path d="M0.0252132 8.46822C0.0472536 8.39666 0.0831852 8.33014 0.130953 8.27248C0.17872 8.21481 0.237387 8.16713 0.303597 8.13216C0.369808 8.09719 0.442264 8.07561 0.51682 8.06866C0.591376 8.06171 0.666571 8.06953 0.738103 8.09167C1.75733 8.37181 2.83259 8.37689 3.85442 8.10639C4.87625 7.83588 5.80816 7.29944 6.55527 6.55169C7.30239 5.80395 7.83803 4.87158 8.10767 3.84953C8.37731 2.82747 8.37131 1.75221 8.0903 0.733223C8.06076 0.634696 8.05846 0.53001 8.08362 0.430277C8.10879 0.330544 8.16049 0.239487 8.23324 0.166768C8.30598 0.0940505 8.39706 0.0423859 8.4968 0.0172588C8.59655 -0.00786829 8.70123 -0.00552046 8.79975 0.0240533C9.99692 0.35923 11.0855 1.00204 11.9571 1.88852C12.8287 2.775 13.453 3.87426 13.7679 5.07693C14.0827 6.27959 14.0772 7.54375 13.7518 8.74362C13.4265 9.94349 12.7926 11.0372 11.9132 11.9161C11.0339 12.7949 9.9398 13.4282 8.73975 13.7529C7.53969 14.0776 6.27553 14.0824 5.07304 13.7668C3.87055 13.4513 2.77164 12.8264 1.88565 11.9543C0.999655 11.0822 0.35746 9.99326 0.0229559 8.7959C-0.00840282 8.68881 -0.00761795 8.57487 0.0252132 8.46822Z" />
</svg>

<svg id="theme_light" viewBox="0 0 15 14"  xmlns="http://www.w3.org/2000/svg">
<path d="M7.5 10.9177C9.67462 10.9177 11.4375 9.15485 11.4375 6.98022C11.4375 4.8056 9.67462 3.04272 7.5 3.04272C5.32538 3.04272 3.5625 4.8056 3.5625 6.98022C3.5625 9.15485 5.32538 10.9177 7.5 10.9177Z" />
<path d="M8.15625 1.79104V0.855225C8.15625 0.681176 8.08711 0.514257 7.96404 0.391186C7.84097 0.268115 7.67405 0.198975 7.5 0.198975C7.32595 0.198975 7.15903 0.268115 7.03596 0.391186C6.91289 0.514257 6.84375 0.681176 6.84375 0.855225V1.79104C6.84375 1.96509 6.91289 2.13201 7.03596 2.25508C7.15903 2.37815 7.32595 2.44729 7.5 2.44729C7.67405 2.44729 7.84097 2.37815 7.96404 2.25508C8.08711 2.13201 8.15625 1.96509 8.15625 1.79104V1.79104ZM4.29487 3.77466C4.4179 3.6516 4.48702 3.48471 4.48702 3.31069C4.48702 3.13668 4.4179 2.96979 4.29487 2.84672L3.6325 2.18522C3.57221 2.12151 3.49976 2.07054 3.41943 2.0353C3.3391 2.00007 3.25252 1.9813 3.16481 1.9801C3.07711 1.97891 2.99005 1.9953 2.90879 2.02832C2.82752 2.06135 2.75371 2.11032 2.6917 2.17236C2.62969 2.2344 2.58074 2.30824 2.54776 2.38952C2.51477 2.4708 2.49842 2.55787 2.49966 2.64557C2.5009 2.73328 2.51971 2.81985 2.55498 2.90016C2.59025 2.98047 2.64126 3.0529 2.705 3.11316L3.3665 3.77466C3.42739 3.83575 3.49973 3.88422 3.57938 3.91729C3.65904 3.95036 3.74444 3.96739 3.83069 3.96739C3.91694 3.96739 4.00234 3.95036 4.08199 3.91729C4.16165 3.88422 4.23399 3.83575 4.29487 3.77466ZM1.375 7.63647H2.31038C2.48442 7.63647 2.65134 7.56733 2.77441 7.44426C2.89748 7.32119 2.96663 7.15427 2.96663 6.98022C2.96663 6.80618 2.89748 6.63926 2.77441 6.51619C2.65134 6.39311 2.48442 6.32397 2.31038 6.32397H1.375C1.20095 6.32397 1.03403 6.39311 0.910961 6.51619C0.78789 6.63926 0.71875 6.80618 0.71875 6.98022C0.71875 7.15427 0.78789 7.32119 0.910961 7.44426C1.03403 7.56733 1.20095 7.63647 1.375 7.63647V7.63647ZM2.705 11.7752C2.76582 11.8364 2.83812 11.8849 2.91774 11.918C2.99736 11.9511 3.08274 11.9681 3.16897 11.9681C3.2552 11.9681 3.34058 11.9511 3.4202 11.918C3.49982 11.8849 3.57212 11.8364 3.63294 11.7752L4.29444 11.1137C4.35891 11.0536 4.41063 10.9812 4.4465 10.9007C4.48236 10.8202 4.50165 10.7333 4.5032 10.6452C4.50476 10.5571 4.48855 10.4695 4.45554 10.3878C4.42254 10.3061 4.37341 10.2319 4.3111 10.1696C4.24878 10.1072 4.17455 10.0581 4.09284 10.0251C4.01112 9.99211 3.9236 9.9759 3.83548 9.97746C3.74737 9.97901 3.66047 9.9983 3.57997 10.0342C3.49947 10.07 3.42702 10.1217 3.36694 10.1862L2.705 10.8468C2.64402 10.9078 2.59564 10.9802 2.56263 11.0598C2.52963 11.1395 2.51264 11.2248 2.51264 11.311C2.51264 11.3973 2.52963 11.4826 2.56263 11.5623C2.59564 11.6419 2.64402 11.7143 2.705 11.7752V11.7752ZM6.84375 12.1694V13.1052C6.84375 13.2793 6.91289 13.4462 7.03596 13.5693C7.15903 13.6923 7.32595 13.7615 7.5 13.7615C7.67405 13.7615 7.84097 13.6923 7.96404 13.5693C8.08711 13.4462 8.15625 13.2793 8.15625 13.1052V12.1694C8.15625 11.9954 8.08711 11.8284 7.96404 11.7054C7.84097 11.5823 7.67405 11.5132 7.5 11.5132C7.32595 11.5132 7.15903 11.5823 7.03596 11.7054C6.91289 11.8284 6.84375 11.9954 6.84375 12.1694V12.1694ZM11.3671 11.7752C11.4279 11.8364 11.5002 11.8849 11.5798 11.918C11.6594 11.9511 11.7448 11.9681 11.831 11.9681C11.9173 11.9681 12.0026 11.9511 12.0823 11.918C12.1619 11.8849 12.2342 11.8364 12.295 11.7752C12.418 11.6522 12.4871 11.4853 12.4871 11.3113C12.4871 11.1372 12.418 10.9704 12.295 10.8473L11.6335 10.1858C11.5732 10.1221 11.5008 10.0711 11.4204 10.0359C11.3401 10.0006 11.2535 9.98187 11.1658 9.98067C11.0781 9.97947 10.991 9.99586 10.9098 10.0289C10.8285 10.0619 10.7547 10.1109 10.6927 10.1729C10.6307 10.235 10.5817 10.3088 10.5488 10.3901C10.5158 10.4714 10.4994 10.5584 10.5007 10.6461C10.5019 10.7338 10.5207 10.8204 10.556 10.9007C10.5912 10.981 10.6423 11.0535 10.706 11.1137L11.3666 11.7752H11.3671ZM13.625 6.32397H12.6892C12.5151 6.32397 12.3482 6.39311 12.2251 6.51619C12.1021 6.63926 12.0329 6.80618 12.0329 6.98022C12.0329 7.15427 12.1021 7.32119 12.2251 7.44426C12.3482 7.56733 12.5151 7.63647 12.6892 7.63647H13.625C13.799 7.63647 13.966 7.56733 14.089 7.44426C14.2121 7.32119 14.2812 7.15427 14.2812 6.98022C14.2812 6.80618 14.2121 6.63926 14.089 6.51619C13.966 6.39311 13.799 6.32397 13.625 6.32397ZM12.295 2.18522C12.1719 2.0622 12.005 1.99308 11.831 1.99308C11.657 1.99308 11.4901 2.0622 11.3671 2.18522L10.7056 2.84672C10.6419 2.90702 10.5909 2.97947 10.5556 3.0598C10.5204 3.14013 10.5016 3.2267 10.5004 3.31441C10.4992 3.40212 10.5156 3.48918 10.5487 3.57044C10.5817 3.6517 10.6307 3.72552 10.6927 3.78753C10.7547 3.84954 10.8286 3.89848 10.9099 3.93147C10.9911 3.96445 11.0782 3.98081 11.1659 3.97957C11.2536 3.97833 11.3402 3.95951 11.4205 3.92425C11.5008 3.88898 11.5732 3.83796 11.6335 3.77422L12.295 3.1136C12.356 3.05266 12.4044 2.98029 12.4374 2.90065C12.4704 2.821 12.4874 2.73563 12.4874 2.64941C12.4874 2.5632 12.4704 2.47783 12.4374 2.39818C12.4044 2.31853 12.356 2.24617 12.295 2.18522V2.18522Z" />

</svg>


<svg id="theme_auto" viewBox="0 0 10 11"  xmlns="http://www.w3.org/2000/svg">
<path d="M2.47497 11H0.847357L4.50453 0.83732H6.27605L9.93323 11H8.30561L5.43247 2.68328H5.35308L2.47497 11ZM2.7479 7.02028H8.02773V8.31046H2.7479V7.02028Z" />
</svg>


<svg id="arrow_up" viewBox="0 0 24 24"  xmlns="http://www.w3.org/2000/svg">
<path d="M5.22981 10.64C5.31376 10.7412 5.41686 10.8249 5.5332 10.8863C5.64955 10.9476 5.77686 10.9854 5.90784 10.9975C6.03881 11.0096 6.17089 10.9957 6.29649 10.9567C6.42209 10.9176 6.53876 10.8542 6.63981 10.77L10.9998 7.13998V19C10.9998 19.2652 11.1052 19.5195 11.2927 19.7071C11.4802 19.8946 11.7346 20 11.9998 20C12.265 20 12.5194 19.8946 12.7069 19.7071C12.8945 19.5195 12.9998 19.2652 12.9998 19V7.13998L17.3598 10.77C17.4609 10.854 17.5776 10.9173 17.7032 10.9563C17.8288 10.9952 17.9608 11.0091 18.0917 10.997C18.2227 10.9849 18.3499 10.9472 18.4663 10.8859C18.5826 10.8247 18.6858 10.7411 18.7698 10.64C18.8539 10.5389 18.9172 10.4222 18.9561 10.2966C18.9951 10.171 19.0089 10.039 18.9968 9.90805C18.9848 9.77712 18.947 9.64985 18.8858 9.53351C18.8245 9.41716 18.7409 9.31402 18.6398 9.22998L12.6398 4.22998L12.4898 4.13998L12.3598 4.06998C12.1281 3.98058 11.8715 3.98058 11.6398 4.06998L11.5098 4.13998L11.3598 4.22998L5.35981 9.22998C5.25855 9.31393 5.17485 9.41703 5.11349 9.53337C5.05214 9.64972 5.01435 9.77703 5.00227 9.90801C4.99019 10.039 5.00408 10.1711 5.04312 10.2967C5.08217 10.4223 5.14561 10.5389 5.22981 10.64Z" />
</svg>

<svg id="thumb_up" viewBox="0 0 20 20"  xmlns="http://www.w3.org/2000/svg">
<path d="M19.3 8.08004C19.019 7.74269 18.6674 7.47113 18.27 7.28452C17.8726 7.0979 17.439 7.0008 17 7.00004H12.44L13 5.57004C13.2329 4.94393 13.3105 4.27065 13.2261 3.60797C13.1416 2.94528 12.8977 2.31297 12.5152 1.76527C12.1327 1.21758 11.623 0.770841 11.0299 0.463388C10.4369 0.155934 9.77804 -0.00305943 9.11 4.45912e-05C8.91764 0.000445953 8.72948 0.0563198 8.56807 0.160967C8.40666 0.265615 8.27887 0.414594 8.2 0.590044L5.35 7.00004H3C2.20435 7.00004 1.44129 7.31611 0.87868 7.87872C0.316071 8.44133 0 9.2044 0 10V17C0 17.7957 0.316071 18.5588 0.87868 19.1214C1.44129 19.684 2.20435 20 3 20H15.73C16.4318 19.9998 17.1113 19.7535 17.6503 19.3041C18.1893 18.8546 18.5537 18.2304 18.68 17.54L19.95 10.54C20.0286 10.1074 20.011 9.66283 19.8987 9.23772C19.7864 8.81262 19.582 8.4174 19.3 8.08004ZM5 18H3C2.73478 18 2.48043 17.8947 2.29289 17.7072C2.10536 17.5196 2 17.2653 2 17V10C2 9.73483 2.10536 9.48047 2.29289 9.29294C2.48043 9.1054 2.73478 9.00004 3 9.00004H5V18ZM18 10.18L16.73 17.18C16.6874 17.413 16.5635 17.6233 16.3804 17.7734C16.1973 17.9236 15.9668 18.0039 15.73 18H7V8.21004L9.72 2.09004C9.99998 2.17167 10.26 2.31045 10.4837 2.49763C10.7073 2.6848 10.8897 2.91631 11.0194 3.17754C11.1491 3.43876 11.2232 3.72404 11.2371 4.01535C11.2509 4.30666 11.2043 4.59768 11.1 4.87004L10.57 6.30005C10.4571 6.6023 10.4189 6.92739 10.4589 7.24758C10.4988 7.56776 10.6156 7.87353 10.7993 8.13878C10.983 8.40404 11.2282 8.62091 11.5139 8.77088C11.7996 8.92086 12.1173 8.99948 12.44 9.00004H17C17.1469 8.99981 17.2921 9.03194 17.4252 9.09416C17.5582 9.15638 17.676 9.24716 17.77 9.36004C17.8663 9.47137 17.9369 9.60259 17.9767 9.74434C18.0164 9.88608 18.0244 10.0349 18 10.18Z" />
</svg>





</svg>